<?xml version="1.0" encoding="UTF-8"?>
<svg width="752pt" height="752pt" fill="#A1BAAA" version="1.1" viewBox="0 0 752 752" xmlns="http://www.w3.org/2000/svg">
 <path d="m283.85 401.89c-9.5234 0-17.273 7.6719-17.273 17.105v10.254c0 8.6016 6.4609 15.668 14.812 16.863l27.121 121.54c0.72266 3.25 3.6094 5.5547 6.9336 5.5547h123.39c3.3711 0 6.2812-2.3711 6.9609-5.6797l24.887-121.43c8.3008-1.2344 14.711-8.2812 14.711-16.855v-10.254c0-9.4336-7.7461-17.105-17.266-17.105h-80.746v-35.109c9.918 5.7148 21.199 8.7578 32.738 8.7578 36.012 0 65.312-29.055 65.312-64.766 0-22.754-11.77-43.414-31.066-55.152 0.71484-3.875 1.0781-7.8203 1.0781-11.781 0-35.855-29.414-65.023-65.566-65.023-35.82 0-65.027 28.641-65.559 64.047-28.207 7.668-48.086 33.121-48.086 62.688 0 35.855 29.414 65.023 65.566 65.023 11.168 0 21.828-2.7188 31.375-7.9102v39.23zm57.945-45.531c-28.316 0-51.359-22.793-51.359-50.816 0-24.723 17.824-45.766 42.375-50.043 3.6289-0.62891 6.1719-3.9258 5.8633-7.5898-0.11328-1.3516-0.16016-2.707-0.16016-4.082 0-28.023 23.039-50.816 51.359-50.816 28.32 0 51.359 22.793 51.359 50.816 0 4.5859-0.62109 9.1289-1.8359 13.508-0.91016 3.2773 0.62891 6.7422 3.6758 8.2656 17.363 8.6445 28.145 25.953 28.145 45.172 0 27.879-22.926 50.559-51.105 50.559-9.4062 0-18.598-2.5469-26.574-7.3672-2.1836-1.3125-4.2188-2.832-6.168-4.4414v-4.2109l36.211-35.719c2.793-2.7578 2.8242-7.25 0.070313-10.043-2.7617-2.8008-7.25-2.8242-10.051-0.070313l-26.227 25.867v-25.426-0.003907l0.003906-59.891c0-3.9258-3.1836-7.1055-7.1055-7.1055s-7.1055 3.1758-7.1055 7.1055v42.953l-21.184-20.891c-2.8008-2.7578-7.2891-2.7227-10.051 0.070312-2.75 2.793-2.7227 7.293 0.070312 10.043l31.16 30.73v39.34 0.003907 3.457c-9.0273 6.9414-19.844 10.625-31.367 10.625zm91.242 202.64h-111.9l-25.133-112.64h160.12zm38.148-140v10.254c0 1.6016-1.375 2.8984-3.0586 2.8984h-1.4688c-0.57812-0.14844-1.168-0.24609-1.7773-0.24609h-177.8c-0.58203 0-1.1523 0.09375-1.7031 0.24609h-1.5234c-1.6914 0-3.0625-1.2969-3.0625-2.8984v-10.254c0-1.6016 1.375-2.8984 3.0625-2.8984h184.27c1.6797 0 3.0547 1.2969 3.0547 2.8984z"/>
</svg>
