<?xml version="1.0" encoding="UTF-8"?>
<svg width="752pt" height="752pt" fill="#A1BAAA" version="1.1" viewBox="0 0 752 752" xmlns="http://www.w3.org/2000/svg">
 <g>
  <path d="m486.66 449.43c-1.4062-1.4062-3.5586-2.1523-5.3203-2.168-1.9453 0.023437-47.965 0.88672-77.609 30.523-7.918 7.918-14.777 16.367-20.336 24.82l0.003906-97.73c49.969-3.6055 89.957-42.312 94.457-93.539v-119.2c0-2.6562-1.4219-5.1055-3.7383-6.4297-2.0508-1.1602-4.5156-1.2148-6.6523-0.26562l-0.050781-0.097656-0.65234 0.39062c-0.03125 0.015625-0.058594 0.023437-0.082031 0.035156-14.953 8.8516-27.254 22.516-36.555 40.625-2.7383 5.3555-4.9727 10.641-6.793 15.57-4.2266-11.469-10.73-24.773-20.609-36.57-6.8164-8.2266-14.629-14.926-23.219-19.898-2.3008-1.332-5.1211-1.332-7.4219 0-8.5391 4.957-16.352 11.648-23.184 19.875-9.7461 11.633-16.199 24.738-20.414 36.082-1.8203-4.8633-4.0625-10.047-6.793-15.324-9.3398-18.047-21.719-31.715-36.785-40.594-2.2695-1.3516-5.1055-1.375-7.4219-0.058594-2.3086 1.3164-3.7305 3.7656-3.7305 6.4219l0.03125 120.09c4.4688 50.75 44.656 89.488 94.812 92.906v143.07h0.52344c0.86719 5.0625 2.9141 9.4062 6.2656 12.75 4.4453 4.4453 10.758 6.8008 18.27 6.8008 18.195 0 42.969-13.469 64.652-35.148 29.629-29.629 30.496-75.668 30.516-77.609 0.027344-2-0.75-3.9141-2.1641-5.3203zm-198.11-138.09v-104.91c7.7617 6.918 14.461 15.785 20 26.492 9.1914 17.73 12.145 34.777 12.645 38.078 0.125 1.082 0.25 1.7031 0.25 1.7031l0.30469-0.074219c1.1016 2.7461 3.6914 4.6836 6.7617 4.6836h0.007813c3.1523-0.007812 5.7734-2.0352 6.8281-4.8906l0.19141 0.035156 0.19141-0.96875-0.066406-0.015625c0.035156-0.16406 0.14062-0.30469 0.15625-0.46484 0.49609-3.3594 5.4453-33.504 24.426-56.172 4.707-5.668 9.9219-10.434 15.531-14.223 5.6367 3.7969 10.848 8.5625 15.555 14.246 20.215 24.16 24.582 56.844 24.625 57.172 0.46484 3.6914 3.6094 6.4609 7.332 6.4688h0.007813c3.7227 0 6.8672-2.7656 7.3398-6.4531 0.023438-0.18359 2.5586-19.188 12.641-38.898 5.4922-10.68 12.105-19.52 19.758-26.402l0.03125 103.95c-4.0117 45.465-41.535 79.738-87.285 79.738-45.746-0.003906-83.258-34.293-87.23-79.098zm159.29 210.55c-27.785 27.77-54.988 35.355-62.004 28.34-1.7109-1.7031-2.5078-4.5352-2.4492-8.1562v-0.60547c0.15625-3.8242 1.2578-8.4805 3.2773-13.66 4.9883-12.758 14.762-26.809 27.52-39.574 18.508-18.508 45.73-23.945 59.184-25.535-1.5898 13.469-7.0273 40.691-25.527 59.191z"/>
  <path d="m278.62 462.71c13.453 1.5898 40.676 7.0391 59.191 25.551 1.582 1.5703 3.1016 3.1602 4.5664 4.7656l10.945-9.9609c-1.6289-1.7891-3.3164-3.5508-5.0547-5.2852-29.645-29.637-75.668-30.5-77.609-30.523-2.1914 0.007813-3.9141 0.76172-5.3203 2.168s-2.1914 3.3242-2.168 5.3203c0.023437 1.9453 0.88672 47.98 30.508 77.609 19.121 19.121 40.988 32.086 58.496 34.684l2.168-14.645c-14.266-2.1094-33.492-13.801-50.199-30.5-18.492-18.5-23.934-45.723-25.523-59.184z"/>
 </g>
</svg>
