<?xml version="1.0" encoding="UTF-8"?>
<svg width="752pt" height="752pt" fill="#A1BAAA" version="1.1" viewBox="0 0 752 752" xmlns="http://www.w3.org/2000/svg">
 <defs>
  <clipPath id="a">
   <path d="m183 144h383v468.79h-383z"/>
  </clipPath>
 </defs>
 <g clip-path="url(#a)">
  <path d="m251.09 144.76c-8.4297-0.62109-16.055 5-17.941 13.227l-10.293 44.809c-11.715 51.023 16.949 102.67 66.496 119.8l83.074 28.723c1.1172 0.38281 2.2344 0.64844 3.3438 0.80078-5.9531 8.4883-11.516 17.527-16.344 26.98-17.465 34.191-25.688 74.59-7.1367 113.9-4.2461 1.5547-8.2656 4.0977-11.742 7.7109l-5.1172 5.3164c-8.668 9.0117-23.094 9.0547-31.816 0.097656-13.223-13.582-35.086-13.516-48.227 0.14062l-10.641 11.059c-4.3086 4.4766-11.477 4.4961-15.809 0.046875-8.8359-9.0742-23.441-9.0312-32.219 0.09375l-11.973 12.441c-2.1797 2.2656-2.1094 5.8711 0.16406 8.0508 2.2734 2.1797 5.8828 2.1094 8.0664-0.16016l11.969-12.438c4.3086-4.4766 11.477-4.5 15.809-0.046875 8.8359 9.0703 23.441 9.0273 32.219-0.097656l10.641-11.055c8.6719-9.0117 23.094-9.0547 31.816-0.09375 13.223 13.578 35.086 13.512 48.23-0.14453l5.1172-5.3164c1.5312-1.5938 3.2305-2.8594 5.0312-3.8164-0.78516 5.5664-2.4727 12.961-5.4297 20.273-3.7734 9.3281-9.3281 17.828-17 22.645-10.758 6.7578-17.004 18.469-20.57 29.469-3.6055 11.102-4.7812 22.395-4.7617 29.555 0.011719 3.1445 2.5703 5.6875 5.7227 5.6797 3.1523-0.011718 5.6992-2.5664 5.6914-5.7148-0.019532-6.1328 1.0234-16.207 4.2031-26.012 3.2148-9.9062 8.3203-18.641 15.789-23.332 10.555-6.6289 17.305-17.629 21.508-28.023 0.77344-1.9141 1.4727-3.832 2.0977-5.7305 0.003906 0.007813 0.007812 0.019532 0.011718 0.027344 4.2656 10.367 11.078 21.332 21.672 27.895 7.4961 4.6484 12.652 13.352 15.93 23.242 3.2383 9.7812 4.3398 19.852 4.3555 25.984 0.011718 3.1445 2.5742 5.6875 5.7227 5.6797 3.1523-0.007812 5.6992-2.5664 5.6914-5.7148-0.023437-7.1562-1.2656-18.441-4.9375-29.527-3.6328-10.973-9.9453-22.648-20.742-29.34-7.7031-4.7734-13.309-13.238-17.137-22.547-2.3555-5.7266-3.9297-11.508-4.8906-16.422 6.9375 1.3203 13.16 6.2695 15.363 14.027 6.5781 23.145 35.836 30.43 52.531 13.078l28.844-29.973c12.301-12.785 30.828-16.77 45.992-8.8984 10.773 5.5859 22.254 12.383 30.973 19.59 4.3594 3.6016 7.8477 7.1602 10.207 10.562 2.375 3.418 3.3711 6.3281 3.3789 8.75 0.007812 3.1484 2.5703 5.6914 5.7227 5.6797 3.1523-0.007812 5.6992-2.5664 5.6875-5.7109-0.015625-5.5234-2.2578-10.664-5.4102-15.207-3.1641-4.5586-7.4922-8.8672-12.309-12.852-9.6328-7.9609-21.938-15.191-32.984-20.922-20.238-10.5-44.152-4.8242-59.488 11.113l-28.844 29.977c-10.59 11.004-29.148 6.3828-33.32-8.3008-3.9766-13.984-16.23-22.18-28.992-22.645-16.746-32.746-12.523-66.91 1.2344-97.918 0.52344 0.75391 1.1211 1.4766 1.7891 2.168l32.719 33.723c36.484 37.598 95.48 41.723 136.86 9.5703l12.27-9.5391c6.6719-5.1836 8.5547-14.457 4.4297-21.824l-7.5859-13.551c-25.582-45.699-81.539-64.816-129.8-44.352l-34.578 14.66c14.133-21.387 31.285-39.582 45.867-52.25l0.12109 0.11328 13.504 12.812c14.859 14.098 37.316 16.574 54.902 6.0547l3.3555-2.0117c5.3086-3.1719 7.1133-9.9883 4.0781-15.367l-1.9219-3.4023c-10.07-17.832-30.809-26.77-50.711-21.863l-6.7734 1.6719 2.8789-5.2852c9.7969-17.98 6.3789-40.273-8.3477-54.512l-2.8125-2.7188c-4.4453-4.293-11.508-4.2734-15.926 0.046875l-2.7969 2.7344c-14.645 14.324-17.926 36.637-8.0273 54.562l8.9961 16.281c0.51172 0.92578 1.1211 1.7422 1.8008 2.4492-7.8047 6.7969-16.293 15.086-24.703 24.562l-2.8008-81.098c-1.8047-52.316-42.801-94.875-95.094-98.723zm176.56 150.42c0.17578-0.15625 0.35547-0.30859 0.54297-0.45313l8.5039-15.617c7.3438-13.484 4.7852-30.203-6.2617-40.879l-2.8125-2.7188-2.7969 2.7344c-10.984 10.742-13.445 27.477-6.0234 40.918zm21.121 21.316-13.004-12.336c0.10938-0.21484 0.20312-0.4375 0.28516-0.66406l17.301-4.2656c14.926-3.6836 30.48 3.0234 38.031 16.395l1.9219 3.4023-3.3594 2.0117c-13.188 7.8867-30.027 6.0312-41.176-4.543zm-204.5-155.96c0.62891-2.7422 3.1719-4.6133 5.9805-4.4062l45.922 3.3789c46.484 3.418 82.922 41.25 84.527 87.754l2.9688 85.953-100.9-136.46c-1.8711-2.5312-5.4453-3.0703-7.9805-1.1992-2.5352 1.8672-3.0703 5.4336-1.1992 7.9648l100.9 136.46-81.402-28.145c-44.043-15.23-69.52-61.137-59.105-106.49zm297.68 259.62c2.2227-1.7266 2.8516-4.8164 1.4766-7.2734l-7.5898-13.551c-22.738-40.621-72.477-57.617-115.38-39.426l-41.66 17.664 127.13 25.707c3.0898 0.625 5.0859 3.6289 4.4609 6.7148-0.625 3.082-3.6367 5.0742-6.7266 4.4492l-127.12-25.707 31.488 32.453c32.43 33.426 84.871 37.09 121.65 8.5078z" fill-rule="evenodd"/>
 </g>
</svg>
