<?xml version="1.0" encoding="UTF-8"?>
<svg width="752pt" height="752pt" fill="#A1BAAA" version="1.1" viewBox="0 0 752 752" xmlns="http://www.w3.org/2000/svg">
 <g>
  <path d="m588.74 428.72h-425.48c-3.5742 0-6.4766-2.8984-6.4766-6.4766v-55.496c0-3.5742 2.8984-6.4766 6.4766-6.4766h425.48c3.5742 0 6.4766 2.8984 6.4766 6.4766v55.496c-0.003906 3.5781-2.9023 6.4766-6.4805 6.4766zm-419.01-12.949h412.54v-42.547h-412.54z"/>
  <path d="m533.25 595.22h-314.49c-3.3008 0-6.0703-2.4805-6.4336-5.7578l-18.5-166.49c-0.20312-1.832 0.38281-3.6602 1.6094-5.0352 1.2305-1.375 2.9844-2.1602 4.8242-2.1602h351.48c1.8398 0 3.5977 0.78516 4.8242 2.1562 1.2266 1.3711 1.8125 3.2031 1.6094 5.0352l-18.5 166.49c-0.35938 3.2812-3.1328 5.7617-6.4297 5.7617zm-308.7-12.949h302.9l17.059-153.54-337.02-0.003906z"/>
  <path d="m376 373.23c-3.5742 0-6.4766-2.8984-6.4766-6.4766l0.003906-129.49c0-3.5742 2.8984-6.4766 6.4766-6.4766 3.5742 0 6.4766 2.8984 6.4766 6.4766v129.5c-0.003907 3.5742-2.9023 6.4727-6.4805 6.4727z"/>
  <path d="m376 243.73h-36.383c-24.309 0-44.086-19.777-44.086-44.09v-36.379c0-3.5742 2.8984-6.4766 6.4766-6.4766h36.383c24.309 0 44.086 19.777 44.086 44.09v36.383c0 3.5742-2.8984 6.4727-6.4766 6.4727zm-67.52-73.996v29.906c0 17.172 13.969 31.141 31.137 31.141h29.91v-29.906c0-17.172-13.969-31.141-31.141-31.141z"/>
  <path d="m412.38 280.73h-36.383c-3.5742 0-6.4766-2.8984-6.4766-6.4766v-36.383c0.003906-24.309 19.781-44.086 44.094-44.086h36.383c3.5742 0 6.4766 2.8984 6.4766 6.4766v36.383c-0.003906 24.309-19.781 44.086-44.094 44.086zm-29.906-12.949h29.906c17.172 0 31.141-13.969 31.141-31.141v-29.906h-29.906c-17.172 0-31.141 13.969-31.141 31.137z"/>
  <path d="m348.25 400.98h-184.99c-3.5742 0-6.4766-2.8984-6.4766-6.4766 0-3.5742 2.8984-6.4766 6.4766-6.4766h184.99c3.5742 0 6.4766 2.8984 6.4766 6.4766-0.003907 3.5781-2.9023 6.4766-6.4766 6.4766z"/>
  <path d="m329.75 493.47h-120.25c-3.5742 0-6.4766-2.8984-6.4766-6.4766 0-3.5742 2.8984-6.4766 6.4766-6.4766h120.25c3.5742 0 6.4766 2.8984 6.4766 6.4766-0.003907 3.5781-2.9023 6.4766-6.4766 6.4766z"/>
  <path d="m274.25 548.97h-55.496c-3.5742 0-6.4766-2.8984-6.4766-6.4766 0-3.5742 2.8984-6.4766 6.4766-6.4766h55.496c3.5742 0 6.4766 2.8984 6.4766 6.4766 0 3.5781-2.8984 6.4766-6.4766 6.4766z"/>
 </g>
</svg>
