<?xml version="1.0" encoding="UTF-8"?>
<svg width="752pt" height="752pt" fill="#A1BAAA" version="1.1" viewBox="0 0 752 752" xmlns="http://www.w3.org/2000/svg">
 <g>
  <path d="m305.92 411.57c-9.5234 0-17.273 7.6758-17.273 17.109v10.25c0 8.5938 6.4648 15.668 14.816 16.859l27.117 121.54c0.72266 3.2539 3.6055 5.5586 6.9336 5.5586h123.39c3.3711 0 6.2812-2.3711 6.957-5.6797l24.895-121.43c8.3047-1.2344 14.715-8.2812 14.715-16.852v-10.25c0-9.4336-7.7461-17.109-17.266-17.109l-81.531 0.003906v-94.191c6.2695 5.4219 14.367 8.543 22.793 8.543 7.5 0 14.66-2.3672 20.703-6.8477 15.391-11.422 18.625-33.25 7.207-48.645-0.59375-0.79688-1.207-1.5625-1.8555-2.2969 0.96094-0.38281 1.8906-0.77344 2.7852-1.1406l1.0078-0.41797c17.734-7.2891 26.242-27.648 18.953-45.383-5.375-13.109-18.012-21.578-32.18-21.578-3.2148 0-6.3828 0.44141-9.4609 1.3164-1.5117-17.789-16.477-31.805-34.652-31.805-18.371 0-33.465 14.32-34.699 32.387-3.5156-1.1602-7.1562-1.7422-10.844-1.7422-14.434 0-27.527 9.082-32.586 22.609-6.7109 17.965 2.4375 38.043 20.402 44.758 0.15234 0.058594 0.29688 0.10938 0.44531 0.16406-0.3125 0.375-0.61719 0.75391-0.91406 1.1367-11.738 15.164-8.957 37.055 6.207 48.793 6.1523 4.7578 13.508 7.2773 21.27 7.2773 7.8281 0 15.207-2.5898 21.211-7.2305v45.105c-12.082-9.0781-31.125-15.637-54.141-18.293 3.2812-5.7812 4.1016-12.914 1.5977-19.617-3.375-9.0469-12.137-15.121-21.789-15.121-1.3008 0-2.5938 0.10938-3.875 0.32812-2.3125-10.406-11.613-18.211-22.703-18.211-11.016 0-20.27 7.6992-22.656 18-1.0234-0.13672-2.0547-0.20312-3.0938-0.20312-9.4727 0-17.922 5.6641-21.516 14.422-4.7031 11.434 0.41016 24.5 11.414 29.793-6.2383 10.148-3.7773 23.609 5.9609 30.844 4.0391 2.9922 8.8281 4.5781 13.848 4.5781 6.6406 0 12.992-2.8789 17.371-7.7891 4.3477 4.4531 10.262 6.9609 16.598 6.9609 5.1953 0 10.117-1.6797 14.227-4.8672 4.9102-3.7969 8.0508-9.2852 8.832-15.453 0.44141-3.4531 0.042969-6.8633-1-10.074 35.773 3.207 60.926 16.52 60.926 28.594v25.297l-88.543 0.003906zm14.523-45.613c-0.30469 2.3945-1.5234 4.5312-3.4336 6.0078-3.8516 2.9883-9.7305 2.2148-12.703-1.625-0.69141-0.89453-1.5781-3.6602-1.8125-6.1719 0.003906-0.11719 0.003906-0.23828 0.003906-0.35547 0-1.8867-0.75781-3.7695-2.0898-5.1016-1.332-1.3359-3.1484-2.1641-5.0312-2.1641h-0.046875c-2.0273 0-3.9609 0.86719-5.3086 2.3828-1.0039 1.1328-1.6211 2.7266-1.7656 4.3008-0.33203 2.0352-2.0117 5.8164-3.4805 7.7969-2.875 3.8867-8.7461 4.7773-12.652 1.875-4.0078-2.9727-4.8477-8.6523-1.875-12.66 1.1641-1.5742 2.7617-2.6992 4.625-3.2617 3.5742-1.0859 5.5938-4.75 4.75-8.3867-0.75781-3.2617-3.7461-5.5-7.0156-5.5-0.37891 0-0.75781 0.027344-1.1406 0.089844-1.5664 0-4.4297-1.1836-6.5117-2.0469l-0.60156-0.24609c-4.6172-1.8984-6.8281-7.1992-4.9297-11.816 1.8477-4.4961 7.1992-6.8203 11.82-4.9297 0.91406 0.375 1.7461 0.89062 2.4766 1.5234 2.4453 2.1406 6.0352 2.3555 8.7148 0.49609 2.6758-1.8477 3.7539-5.2812 2.6172-8.3242-0.37109-0.98438-0.55469-2.043-0.55469-3.1289 0-4.9922 4.0586-9.0508 9.0508-9.0508 4.9922 0 9.0508 4.0586 9.0508 9.0508 0 1.4258-0.32031 2.7852-0.95312 4.0391-1.6094 3.1953-0.59375 7.0938 2.3789 9.0938 2.9727 1.9922 6.9609 1.4727 9.3164-1.2227 0.98438-1.1289 2.2031-1.9648 3.6211-2.4961 4.6094-1.7305 9.9531 0.77734 11.645 5.3125 1.7461 4.668-0.63281 9.8945-5.3008 11.641-2.6562 0.98438-4.625 1.4414-6.1094 1.2773-3.6641-0.42578-7.0156 1.9766-7.7852 5.5547-0.66797 3.0977 0.87109 6.0938 3.5391 7.5898 0.59766 0.44922 1.2695 0.79688 1.9922 1.043 1.4258 0.59766 2.707 1.4766 3.6719 2.7188 1.4844 1.9219 2.1328 4.2969 1.8281 6.6953zm69.09-63.641c-3.9258 5.0703-9.8594 7.9844-16.281 7.9844-4.5859 0-8.9375-1.4883-12.574-4.3047-8.9688-6.9414-10.617-19.891-3.6719-28.863 2.5664-3.3242 6.0352-5.7461 10.02-7.0078 3.4922-1.1094 5.5703-4.6875 4.7969-8.2695-0.76562-3.582-4.1562-5.9609-7.7773-5.5586-3.4141 0.39844-7.4219-0.44531-12.84-2.4688-10.629-3.9727-16.039-15.852-12.066-26.473 2.9922-8 10.742-13.379 19.281-13.379 2.4531 0 4.875 0.44141 7.1992 1.3125 3.1836 1.1875 6.0352 3.1602 8.2539 5.6914 2.3594 2.6914 6.3398 3.2188 9.3164 1.2227 2.9648-2 3.9883-5.8906 2.3789-9.0898-1.4453-2.8633-2.1719-5.9688-2.1719-9.207 0-11.348 9.2305-20.574 20.574-20.574 11.348 0 20.574 9.2305 20.574 20.574 0 2.4609-0.42578 4.8633-1.2734 7.1289-1.1367 3.0469-0.0625 6.4727 2.6094 8.3242 2.668 1.8477 6.2617 1.6523 8.7109-0.48438 1.6914-1.4727 3.6055-2.6523 5.6914-3.5078 2.5039-1.0273 5.1289-1.5469 7.8047-1.5469 8.3867 0 15.859 5.0117 19.039 12.762 4.3086 10.488-0.71875 22.531-11.215 26.848l-1.0312 0.42578c-4.875 2.0156-10.316 4.4297-14.25 3.8086-3.6836-0.60938-7.2031 1.7773-8.0469 5.418-0.83984 3.6406 1.2852 7.3086 4.8633 8.3906 4.2383 1.2852 7.875 3.8516 10.52 7.4102 6.7578 9.1133 4.8438 22.016-4.2578 28.773-3.5742 2.6523-7.8047 4.0508-12.238 4.0508-6.5938 0-12.621-3.0312-16.539-8.3125-2.4453-3.2969-5.0039-8.7344-6.25-12.953v-0.27344c0-1.0742-0.25391-2.0781-0.68359-2.9922-0.097656-0.79688-0.28516-1.5742-0.62109-2.2656-0.28516-0.69531-0.65234-1.3359-1.1016-1.8516-1.3516-1.543-3.3008-2.4336-5.3516-2.4336h-0.085937c-1.8867 0-3.7031 0.88672-5.0352 2.2148-1.332 1.332-2.0938 3.2773-2.0938 5.1562 0 0.22266 0.007812 0.44531 0.027343 0.66797-0.39453 4.6289-2.0156 10.828-4.2031 13.652zm65.574 266.37h-111.9l-25.133-112.64 160.12-0.003906zm38.152-140v10.25c0 1.5977-1.375 2.8945-3.0586 2.8945h-1.4805c-0.57422-0.14844-1.1602-0.24219-1.7617-0.24219l-177.8-0.003906c-0.60156 0-1.1875 0.09375-1.7617 0.24219h-1.4805c-1.6914 0-3.0625-1.2969-3.0625-2.8945v-10.25c0-1.6016 1.375-2.9023 3.0625-2.9023h184.28c1.6875 0 3.0625 1.3047 3.0625 2.9062z"/>
  <path d="m429.57 247.52c0-14.504-11.805-26.312-26.312-26.312-14.508 0-26.312 11.801-26.312 26.312 0 14.512 11.805 26.312 26.312 26.312 14.504 0 26.312-11.805 26.312-26.312zm-38.418 0c0-6.6758 5.4258-12.105 12.105-12.105 6.6758 0 12.105 5.4258 12.105 12.105 0 6.6758-5.4258 12.105-12.105 12.105-6.6797 0-12.105-5.4336-12.105-12.105z"/>
 </g>
</svg>
