<?xml version="1.0" encoding="UTF-8"?>
<svg width="752pt" height="752pt" fill="#A1BAAA" version="1.1" viewBox="0 0 752 752" xmlns="http://www.w3.org/2000/svg">
 <defs>
  <clipPath id="a">
   <path d="m279 139.21h194v263.79h-194z"/>
  </clipPath>
 </defs>
 <g clip-path="url(#a)">
  <path d="m394.56 402.46h-41.668l-0.042969-101.18h-21.914c-28.156 0-51.059-22.902-51.059-51.051l-0.003906-58.969c0-12.762 10.387-23.152 23.152-23.152 12.773 0 23.16 10.387 23.16 23.152v58.965c0 2.6133 2.1328 4.75 4.75 4.75h21.914v-92.609c0-12.773 10.387-23.16 23.16-23.16 12.762 0 23.152 10.387 23.152 23.16v150.88h21.914c2.6133 0 4.7422-2.125 4.7422-4.7422v-58.965c0-12.762 10.387-23.152 23.16-23.152 12.762 0 23.152 10.387 23.152 23.152v58.965c0 28.148-22.902 51.051-51.051 51.051h-21.914l-0.070313 38.82-0.57031 3.8945zm0-4.9805h0.042969zm-32.605-4.1289h28.098v-42.895h31.023c23.125 0 41.945-18.82 41.945-41.945v-58.965c0-7.7461-6.2969-14.043-14.043-14.043-7.7461 0-14.051 6.2969-14.051 14.043v58.965c0 7.6406-6.207 13.848-13.848 13.848h-31.023l-0.003906-159.99c0-7.7461-6.2969-14.055-14.043-14.055-7.7461 0-14.051 6.3047-14.051 14.051v101.72h-31.023c-7.6406 0-13.855-6.2188-13.855-13.855l-0.003906-58.965c0-7.7461-6.3047-14.043-14.051-14.043s-14.043 6.2969-14.043 14.043v58.965c0 23.125 18.82 41.945 41.953 41.945h31.023z"/>
 </g>
 <path d="m451.43 521.72h-150.85c-2.207 0-4.1016-1.582-4.4844-3.7617l-21.023-119.26c-0.23047-1.3242 0.13281-2.6875 0.99609-3.7188 0.86328-1.0312 2.1445-1.6289 3.4883-1.6289h192.9c1.3438 0 2.625 0.59766 3.4883 1.6289 0.86328 1.0312 1.2344 2.3906 0.99609 3.7188l-21.023 119.26c-0.38672 2.1797-2.2812 3.7617-4.4883 3.7617zm-147.02-9.1094h143.2l19.426-110.15-182.05 0.003907z"/>
 <path d="m419.99 567.25h-87.969c-15.777 0-29.215-11.277-31.965-26.816l-3.957-22.484c-0.23047-1.3242 0.13281-2.6875 0.99609-3.7188 0.85938-1.0273 2.1406-1.625 3.4844-1.625h150.85c1.3438 0 2.625 0.59766 3.4883 1.6289 0.87109 1.0312 1.2344 2.3906 0.99609 3.7188l-3.9648 22.484c-2.7344 15.535-16.18 26.812-31.957 26.812zm-113.98-45.535 3.0156 17.137c1.9727 11.18 11.648 19.293 22.996 19.293h87.969c11.348 0 21.016-8.1094 22.992-19.289l3.0234-17.141z"/>
 <path d="m480.73 402.46h-209.47c-2.5156 0-4.5547-2.0352-4.5547-4.5547 0-2.5156 2.0352-4.5547 4.5547-4.5547h209.47c2.5156 0 4.5547 2.0352 4.5547 4.5547s-2.0352 4.5547-4.5547 4.5547z"/>
</svg>
