<?xml version="1.0" encoding="UTF-8"?>
<svg width="752pt" height="752pt" fill="#A1BAAA" version="1.1" viewBox="0 0 752 752" xmlns="http://www.w3.org/2000/svg">
 <path d="m414.35 427.99c4.5781 1.1797 9.2773 1.7773 13.98 1.7773 34.371 0 62.332-31.523 62.332-70.27 0-22.438-9.6328-43.57-25.496-56.715 3.832-7.8086 5.8281-16.562 5.8281-25.652 0-29.453-21.355-53.406-47.605-53.406-1.3672 0-2.7344 0.066406-4.0859 0.19531-2.957-19.441-18.152-34.297-36.402-34.297-18.246 0-33.445 14.855-36.398 34.301-1.3633-0.13281-2.7344-0.19922-4.1016-0.19922-26.246 0-47.605 23.957-47.605 53.406 0 6.2969 1 12.555 2.918 18.441-22.012 11.32-36.367 36.09-36.367 63.93 0 38.75 27.965 70.27 62.344 70.27 4.7266 0 9.418-0.59766 13.965-1.7773h17.355v120.2h-53.137c-3.9258 0-7.1055 3.1836-7.1055 7.1055s3.1758 7.1055 7.1055 7.1055h148.26c3.9258 0 7.1055-3.1836 7.1055-7.1055s-3.1758-7.1055-7.1055-7.1055h-53.137l0.003906-120.2zm-77.633-14.211c-0.64453 0-1.2852 0.089844-1.9102 0.26172-3.6055 1.0078-7.3438 1.5156-11.121 1.5156-26.539 0-48.137-25.152-48.137-56.062 0-24.625 13.555-46.133 33.727-53.52 1.875-0.6875 3.3828-2.1328 4.1406-3.9883 0.75391-1.8555 0.69141-3.9336-0.17187-5.7461-2.7734-5.8203-4.2422-12.426-4.2422-19.117 0-21.613 14.984-39.199 33.398-39.199 2.9062 0 5.8008 0.44531 8.5938 1.3125 2.1914 0.69141 4.5859 0.26562 6.418-1.1289 1.832-1.3906 2.8711-3.5898 2.793-5.8867l-0.019531-1.4023c0-14.891 10.188-27 22.707-27 12.527 0 22.715 12.113 22.715 27 0 0.42578-0.003907 0.84766-0.027344 1.2852-0.11328 2.3203 0.91016 4.5508 2.7422 5.9727 1.8359 1.4219 4.2422 1.8594 6.4648 1.1641 2.8008-0.87109 5.6914-1.3125 8.5938-1.3125 18.414 0 33.398 17.586 33.398 39.199 0 8.6719-2.3672 16.875-6.8398 23.727-2.1367 3.2734-1.2266 7.6562 2.0312 9.8125 15.098 9.9648 24.477 28.68 24.477 48.832 0 30.91-21.59 56.062-48.125 56.062-3.7539 0-7.5117-0.51172-11.156-1.5195-0.61719-0.16406-1.2539-0.25391-1.8906-0.25391h-24.746c-0.21484-0.019531-0.42188-0.066406-0.64453-0.066406h-6.7773v-11.246c0.3125-0.22656 0.67578-0.35547 0.95703-0.64062l38.312-38.312c2.7734-2.7734 2.7734-7.2695 0-10.043-2.7734-2.7734-7.2695-2.7734-10.043 0l-29.227 29.215v-68.559c0-3.9219-3.1758-7.1055-7.1055-7.1055-3.9258 0-7.1055 3.1836-7.1055 7.1055v59.297l-25.836-25.844c-2.7734-2.7734-7.2695-2.7734-10.043 0-2.7734 2.7734-2.7734 7.2695 0 10.043l35.883 35.887v20.195h-6.793c-0.21875 0-0.42578 0.046874-0.64453 0.066406zm46.074 134.4h-13.574v-120.19h13.574z"/>
</svg>
