<?xml version="1.0" encoding="UTF-8"?>
<svg width="752pt" height="752pt" fill="#A1BAAA" version="1.1" viewBox="0 0 752 752" xmlns="http://www.w3.org/2000/svg">
 <path d="m520.78 208.97c-39.082 0.30859-77.465 15.129-107.03 42.91-43.406 40.789-60.383 102.5-44.27 159.76-12.418 20.293-23.555 41.906-32.566 64.426-4.8789-21.914-12.602-43.184-21.992-63.066 15.805-40.504 8.043-86.66-20.414-119.73-22.891-26.598-56.07-41.094-90.109-40.578-9.5352 0.28125-19.137 1.4531-28.598 4.0312l0.003907-0.003906c-2.1836 0.59375-3.9766 2.1484-4.8633 4.2305-17.715 41.344-10.355 89.266 18.945 123.31 28.012 32.547 71.426 46.973 112.98 37.941 12 26.102 20.879 54.418 23.832 82.832-2.918 9.5898-5.418 19.305-7.4297 29.109v0.003907c-0.39453 1.9258-0.007812 3.9258 1.0742 5.5625 1.082 1.6367 2.7695 2.7812 4.6914 3.1719 4 0.82031 7.9141-1.7578 8.7344-5.7617 8.2773-40.355 25.371-79.562 46.625-114.91 55.324 19.234 116.96 6.2188 159.94-34.18 44.387-41.715 61.141-105.3 43.133-163.64l-0.003906 0.003906c-0.66406-2.1602-2.2812-3.8945-4.3867-4.7109-17.711-6.8867-36.16-10.395-54.516-10.699-1.2578-0.019531-2.5156 0-3.7852-0.015625zm0 14.785c1.1172-0.007812 2.293-0.003906 3.4297 0.015625 15.465 0.28125 31.008 3.0469 46.027 8.4609 14.656 52.004-0.72656 108-40.129 145.02-38.172 35.871-92.422 47.898-141.73 32.035 7.543-11.664 15.492-22.855 23.684-33.445 35.289-45.645 75.105-80.387 103.12-95.688h-0.003906c1.7227-0.94141 3-2.5273 3.5547-4.4102 0.55078-1.8828 0.33203-3.9062-0.60547-5.6289-1.4375-2.625-4.3086-4.1289-7.2852-3.8125-0.96875 0.10547-1.9102 0.39844-2.7695 0.86719-31.023 16.945-71.391 52.625-107.73 99.625-6.7734 8.7617-13.398 17.918-19.785 27.418-8.7188-48.008 7.2188-97.703 43.23-131.55 26.82-25.207 61.582-38.648 96.988-38.91zm-313.45 43.723c28.727 0.33594 56.48 12.914 75.871 35.449 21.793 25.32 29.703 59.391 22.051 91.262-3.1602-5.7773-6.4336-11.406-9.8008-16.863-22.719-36.852-49.148-65.789-70.59-80.648l0.003906-0.003906c-1.6133-1.1211-3.6055-1.5547-5.5352-1.2031-1.9297 0.34766-3.6445 1.4531-4.7617 3.0664-1.1172 1.6133-1.5469 3.6055-1.1953 5.5352 0.35156 1.9297 1.457 3.6445 3.0703 4.7617 18.629 12.91 44.598 40.859 66.426 76.254 4.6055 7.4727 9.0352 15.281 13.199 23.352-35.184 6.3398-71.359-6.3008-95.051-33.832-24.836-28.859-31.645-69.098-17.922-104.48 7.125-1.6484 14.312-2.5469 21.461-2.6289 0.92188-0.015626 1.8477-0.015626 2.7695-0.003907z"/>
</svg>
