<?xml version="1.0" encoding="UTF-8"?>
<svg width="752pt" height="752pt" fill="#A1BAAA" version="1.1" viewBox="0 0 752 752" xmlns="http://www.w3.org/2000/svg">
 <g>
  <path d="m485.22 247.91c-6.5742-34.902-36.742-61.34-72.855-61.34-35.918 0-66.066 26.348-72.785 61.109-33.953 6.8594-59.637 37.523-59.637 74.199 0 27.926 15.043 52.32 37.242 65.426-8.3477 7.6758-16.988 18-24.391 31.379-11.516 0.78125-28.562-0.011719-36.699-6.7734-2.1641-1.8047-4.6641-4.7031-4.8164-11.316-0.19141-8.7266-7.8242-15.168-16.141-15.43-8.7109 0.19922-15.617 7.4297-15.418 16.141 0.32422 14.305 5.9258 26.363 16.211 34.902 12.676 10.512 30.047 13.535 44.344 14.098-2.5742 9.582-4.5234 20.031-5.4023 31.75-0.11719 0.66797-0.035156 1.3281-0.066406 2.0039-1.2891 19.738 0.007812 42.395 5.4609 68.785 1.5391 7.457 8.1133 12.59 15.445 12.59 1.0547 0 2.1367-0.10938 3.207-0.32422 8.5391-1.7734 14.035-10.113 12.27-18.652-4.1641-20.145-5.5508-37.469-5.2578-52.73 9.6523-5.1055 28.508-11.996 42.715 2.2266 3.082 3.082 7.1211 4.625 11.168 4.625 4.0391 0 8.0781-1.543 11.152-4.625 6.1758-6.1523 6.1758-16.156 0.015625-22.324-18.938-18.93-41.723-20.156-60.625-15.293 7.0703-27.008 20.852-42.848 31.98-51.727 10.172 29.379 37.648 50.57 70.031 50.57 35.844 0 65.91-26.27 72.625-60.953 34.047-6.8594 59.801-37.586 59.801-74.352-0.003906-36.41-25.656-66.98-59.574-73.965zm-14.621 118.18c-8.6875 0-15.746 7.0312-15.785 15.707-0.11719 24.156-19.156 43.812-42.449 43.812-23.586 0-42.773-19.688-42.773-43.891 0-0.88281-0.36328-1.6445-0.5-2.4883-0.13672-0.85547-0.039062-1.7031-0.32422-2.5508-0.066406-0.19141-0.21875-0.31641-0.29297-0.50391-0.40234-1.0625-1.0508-1.9414-1.6602-2.8828-0.52344-0.80859-0.9375-1.6758-1.5859-2.3594-0.62891-0.66406-1.4219-1.1055-2.1523-1.6523-0.89844-0.67188-1.7305-1.3984-2.7422-1.8633-0.71484-0.32812-1.5195-0.41016-2.2891-0.625-1.2148-0.34766-2.3906-0.71875-3.6719-0.75781-0.17188-0.007812-0.31641-0.10156-0.48828-0.10156-23.363-0.10938-42.371-19.871-42.371-44.059 0-24.297 19.039-44.059 42.449-44.059 8.6875 0 15.738-7.0156 15.785-15.707 0.125-24.234 19.238-43.969 42.617-43.969 23.492 0 42.609 19.762 42.609 44.059 0 8.6953 7.0234 15.738 15.707 15.785 23.457 0.10938 42.531 19.793 42.531 43.891 0.003906 24.375-19.109 44.215-42.613 44.215z"/>
  <path d="m373.84 283.37c-10.25 10.266-15.895 23.941-15.895 38.508 0 14.582 5.6484 28.258 15.895 38.508 10.621 10.621 24.574 15.941 38.531 15.941 13.938 0 27.879-5.3047 38.5-15.926h0.007812c10.25-10.266 15.895-23.941 15.895-38.523s-5.6484-28.258-15.891-38.508c-21.254-21.242-55.793-21.242-77.043 0zm54.703 54.711c-8.918 8.9258-23.457 8.9102-32.375-0.015625-4.293-4.2852-6.6523-10.035-6.6523-16.188 0-6.1367 2.3672-11.887 6.6523-16.188 4.4648-4.457 10.328-6.6914 16.195-6.6914 5.8672 0 11.723 2.2344 16.188 6.6914 4.293 4.2852 6.6523 10.035 6.6523 16.188s-2.3672 11.902-6.6602 16.203z"/>
  <path d="m497.39 307.8c-0.79297-0.63281-1.582-1.2656-2.3672-1.8945-0.94922-0.63281-1.8945-1.0938-2.8438-1.418-0.94922-0.47656-1.8945-0.78516-2.8438-0.94141-5.2109-1.1094-10.574 0.63281-14.359 4.2539-1.4258 1.5859-2.5273 3.3125-3.3125 5.2109-0.79297 1.8945-1.2656 3.9453-1.2656 5.9961 0 2.0508 0.46875 4.1016 1.2656 5.9961 0.78516 1.8984 1.8867 3.6406 3.3125 5.2109 1.5742 1.418 3.3125 2.5273 5.2031 3.3125 1.8945 0.78516 3.9453 1.2656 6.0039 1.2656 2.0508 0 4.1016-0.47656 5.9961-1.2656 1.8945-0.63281 3.6289-1.8945 5.2109-3.3125 1.418-1.5703 2.5195-3.3125 3.3164-5.2109 0.78516-1.8945 1.2656-3.9453 1.2656-5.9961 0-2.0508-0.47656-4.1016-1.2656-5.9961-0.79688-1.8945-1.8984-3.6211-3.3164-5.2109z"/>
  <path d="m401.41 256.65c1.582 1.4336 3.3125 2.6836 5.2109 3.4844 1.8945 0.78516 3.9453 1.0938 5.9961 1.0938 2.0508 0 4.1016-0.30859 5.9961-1.0938 1.8945-0.80078 3.6289-2.0508 5.2109-3.4844 1.418-1.5742 2.5273-3.3125 3.3125-5.2109 0.79297-1.8789 1.2656-3.9453 1.2656-5.9961 0-2.0508-0.46875-4.1016-1.2656-5.9961-0.78516-1.8945-1.8945-3.6211-3.3125-5.2109-0.78516-0.63281-1.582-1.2656-2.3672-1.8945-0.94922-0.63281-1.8945-1.0938-2.8438-1.418-0.94531-0.46484-1.8945-0.78516-2.8359-0.94141-3.1602-0.63281-6.3203-0.32422-9.1562 0.94141-1.8945 0.78516-3.6289 1.8945-5.2109 3.3125-1.418 1.5859-2.5273 3.3125-3.3125 5.2109-0.79297 1.8945-1.2656 3.9453-1.2656 5.9961 0 2.0508 0.46875 4.1172 1.2656 5.9961 0.78516 1.8984 1.8945 3.6406 3.3125 5.2109z"/>
  <path d="m419.73 385.47c-5.8438-5.8438-16.418-5.8438-22.262 0-3 3.0078-4.7344 7.1055-4.7344 11.207 0 4.2695 1.7344 8.2148 4.7344 11.207 1.418 1.418 3.1602 2.5273 5.0469 3.3125 1.8945 0.80078 3.9453 1.2656 6.0039 1.2656 2.0508 0 4.1016-0.46094 5.9961-1.2656 2.0508-0.78516 3.6289-1.8945 5.2109-3.3125 3-2.9922 4.5781-6.9375 4.5781-11.207 0-2.0508-0.31641-4.1016-1.1094-5.9961-0.78516-2.0508-2.0469-3.625-3.4648-5.2109z"/>
  <path d="m346.16 311.9c-0.78516-0.63281-1.582-1.418-2.3672-1.8945-0.94922-0.61719-1.7422-1.0938-2.8438-1.418-0.94922-0.46094-1.8945-0.78516-2.8438-0.94141-5.2031-1.1094-10.574 0.63281-14.207 4.2539-1.582 1.4336-2.6836 3.1602-3.4688 5.2109-0.79297 1.8945-1.2656 3.9453-1.2656 5.9961 0 2.0664 0.46875 4.1172 1.2656 6.0117 0.78516 1.8789 1.8867 3.6211 3.4688 5.1953 1.4258 1.4336 3.1602 2.5273 5.0547 3.3125 1.8867 0.80078 3.9453 1.2656 5.9961 1.2656 2.2109 0 4.1016-0.46094 5.9961-1.2656 2.0508-0.78516 3.793-1.8789 5.2109-3.3125 1.418-1.5742 2.6836-3.3125 3.4688-5.1953 0.79297-1.8945 1.1094-3.9453 1.1094-6.0117 0-2.0508-0.31641-4.1016-1.1094-5.9961-0.9375-2.0508-2.0469-3.7773-3.4648-5.2109z"/>
 </g>
</svg>
