<?xml version="1.0" encoding="UTF-8"?>
<svg width="752pt" height="752pt" fill="#A1BAAA" version="1.1" viewBox="0 0 752 752" xmlns="http://www.w3.org/2000/svg">
 <defs>
  <clipPath id="a">
   <path d="m139.21 139.21h473.58v473.58h-473.58z"/>
  </clipPath>
 </defs>
 <path transform="matrix(9.1073 0 0 9.1073 139.21 139.21)" d="m24.154 6.6928c0-0.63007 0.18014-1.2601 0.54086-1.741l1.3056-1.9516 1.3056 1.9516c0.36029 0.48081 0.54086 1.1105 0.54086 1.7405" fill="none" stroke="#000" stroke-linecap="round" stroke-linejoin="round" stroke-miterlimit="10" stroke-width="2"/>
 <path transform="matrix(9.1073 0 0 9.1073 139.21 139.21)" d="m24.154 15.307c0 0.63007 0.18014 1.2601 0.54086 1.741l1.3056 1.9516 1.3056-1.9516c0.36029-0.48081 0.54086-1.1105 0.54086-1.7405" fill="none" stroke="#000" stroke-linecap="round" stroke-linejoin="round" stroke-miterlimit="10" stroke-width="2"/>
 <path transform="matrix(9.1073 0 0 9.1073 139.21 139.21)" d="m24.154 6.6928c0-0.63007 0.18014-1.2601 0.54086-1.741l1.3056-1.9516 1.3056 1.9516c0.36029 0.48081 0.54086 1.1105 0.54086 1.7405" fill="none" stroke="#000" stroke-linecap="round" stroke-linejoin="round" stroke-miterlimit="10" stroke-width="2"/>
 <path transform="matrix(9.1073 0 0 9.1073 139.21 139.21)" d="m24.154 15.307c0 0.63007 0.18014 1.2601 0.54086 1.741l1.3056 1.9516 1.3056-1.9516c0.36029-0.48081 0.54086-1.1105 0.54086-1.7405" fill="none" stroke="#000" stroke-linecap="round" stroke-linejoin="round" stroke-miterlimit="10" stroke-width="2"/>
 <path transform="matrix(9.1073 0 0 9.1073 139.21 139.21)" d="m27.74 6.6486c0.44564-0.44564 1.0182-0.76347 1.6131-0.84839l2.3033-0.45679-0.45679 2.3033c-0.084924 0.5949-0.40275 1.1675-0.84839 1.6131" fill="none" stroke="#000" stroke-linecap="round" stroke-linejoin="round" stroke-miterlimit="10" stroke-width="2"/>
 <path transform="matrix(9.1073 0 0 9.1073 139.21 139.21)" d="m21.649 12.74c-0.44564 0.44564-0.76346 1.0182-0.84839 1.6131l-0.45679 2.3033 2.3033-0.45679c0.5949-0.084925 1.1675-0.40275 1.6131-0.84839" fill="none" stroke="#000" stroke-linecap="round" stroke-linejoin="round" stroke-miterlimit="10" stroke-width="2"/>
 <path transform="matrix(9.1073 0 0 9.1073 139.21 139.21)" d="m27.74 6.6486c0.44564-0.44564 1.0182-0.76347 1.6131-0.84839l2.3033-0.45679-0.45679 2.3033c-0.084924 0.5949-0.40275 1.1675-0.84839 1.6131" fill="none" stroke="#000" stroke-linecap="round" stroke-linejoin="round" stroke-miterlimit="10" stroke-width="2"/>
 <path transform="matrix(9.1073 0 0 9.1073 139.21 139.21)" d="m21.649 12.74c-0.44564 0.44564-0.76346 1.0182-0.84839 1.6131l-0.45679 2.3033 2.3033-0.45679c0.5949-0.084925 1.1675-0.40275 1.6131-0.84839" fill="none" stroke="#000" stroke-linecap="round" stroke-linejoin="round" stroke-miterlimit="10" stroke-width="2"/>
 <path transform="matrix(9.1073 0 0 9.1073 139.21 139.21)" d="m30.307 9.1539c0.63007 0 1.2601 0.18014 1.741 0.54086l1.9516 1.3052-1.9516 1.3056c-0.48081 0.36029-1.1105 0.54086-1.7405 0.54086" fill="none" stroke="#000" stroke-linecap="round" stroke-linejoin="round" stroke-miterlimit="10" stroke-width="2"/>
 <path transform="matrix(9.1073 0 0 9.1073 139.21 139.21)" d="m21.692 9.1539c-0.63007 0-1.2601 0.18014-1.741 0.54086l-1.9511 1.3052 1.9516 1.3056c0.48081 0.36029 1.1105 0.54086 1.7405 0.54086" fill="none" stroke="#000" stroke-linecap="round" stroke-linejoin="round" stroke-miterlimit="10" stroke-width="2"/>
 <path transform="matrix(9.1073 0 0 9.1073 139.21 139.21)" d="m30.307 9.1539c0.63007 0 1.2601 0.18014 1.741 0.54086l1.9516 1.3052-1.9516 1.3056c-0.48081 0.36029-1.1105 0.54086-1.7405 0.54086" fill="none" stroke="#000" stroke-linecap="round" stroke-linejoin="round" stroke-miterlimit="10" stroke-width="2"/>
 <path transform="matrix(9.1073 0 0 9.1073 139.21 139.21)" d="m21.692 9.1539c-0.63007 0-1.2601 0.18014-1.741 0.54086l-1.9511 1.3052 1.9516 1.3056c0.48081 0.36029 1.1105 0.54086 1.7405 0.54086" fill="none" stroke="#000" stroke-linecap="round" stroke-linejoin="round" stroke-miterlimit="10" stroke-width="2"/>
 <path transform="matrix(9.1073 0 0 9.1073 139.21 139.21)" d="m30.351 12.74c0.44564 0.44564 0.76346 1.0182 0.84839 1.6131l0.45722 2.3033-2.3033-0.45679c-0.5949-0.084925-1.1675-0.40275-1.6131-0.84839" fill="none" stroke="#000" stroke-linecap="round" stroke-linejoin="round" stroke-miterlimit="10" stroke-width="2"/>
 <path transform="matrix(9.1073 0 0 9.1073 139.21 139.21)" d="m24.26 6.6486c-0.44564-0.44564-1.0182-0.76347-1.6131-0.84839l-2.3033-0.45679 0.45722 2.3033c0.084925 0.5949 0.40275 1.1675 0.84839 1.6131" fill="none" stroke="#000" stroke-linecap="round" stroke-linejoin="round" stroke-miterlimit="10" stroke-width="2"/>
 <path transform="matrix(9.1073 0 0 9.1073 139.21 139.21)" d="m30.351 12.74c0.44564 0.44564 0.76346 1.0182 0.84839 1.6131l0.45722 2.3033-2.3033-0.45679c-0.5949-0.084925-1.1675-0.40275-1.6131-0.84839" fill="none" stroke="#000" stroke-linecap="round" stroke-linejoin="round" stroke-miterlimit="10" stroke-width="2"/>
 <path transform="matrix(9.1073 0 0 9.1073 139.21 139.21)" d="m24.26 6.6486c-0.44564-0.44564-1.0182-0.76347-1.6131-0.84839l-2.3033-0.45679 0.45722 2.3033c0.084925 0.5949 0.40275 1.1675 0.84839 1.6131" fill="none" stroke="#000" stroke-linecap="round" stroke-linejoin="round" stroke-miterlimit="10" stroke-width="2"/>
 <path transform="matrix(9.1073 0 0 9.1073 139.21 139.21)" d="m26 26v-6.9999" fill="none" stroke="#000" stroke-linecap="round" stroke-linejoin="round" stroke-miterlimit="10" stroke-width="2"/>
 <path transform="matrix(9.1073 0 0 9.1073 139.21 139.21)" d="m22 27h8.0001" fill="none" stroke="#000" stroke-miterlimit="10" stroke-width="2"/>
 <g clip-path="url(#a)">
  <path transform="matrix(9.1073 0 0 9.1073 139.21 139.21)" d="m22.28 49h7.4395c1.9683-1.2391 3.2803-3.5025 3.2803-6.0001 0-3.1705-2.1094-5.8452-4.9998-6.7065v-9.2937h-4v9.2937c-2.8909 0.86083-4.9998 3.536-4.9998 6.7065-4.28e-4 2.4976 1.3116 4.7614 3.2799 6.0001z" fill="none" stroke="#000" stroke-miterlimit="10" stroke-width="2"/>
 </g>
</svg>
